<svg width="100" height="100" viewBox="0 0 100 100" fill="none" xmlns="http://www.w3.org/2000/svg">
<path d="M73.4375 95.3125H4.6875V20.3125L20.3125 4.6875H73.4375V95.3125Z" fill="#FFDAAA"/>
<path d="M7.8125 95.3125H73.4375V35.9375C73.4375 68.75 44.0859 95.3125 7.8125 95.3125Z" fill="#FFC477"/>
<path d="M20.3125 4.6875L4.6875 20.3125H20.3125V4.6875Z" fill="#FF5023"/>
<path d="M71.8752 59.1564C67.5927 61.6272 62.6738 62.7727 57.7403 62.448C52.8069 62.1234 48.0804 60.3432 44.1586 57.3326C40.2368 54.322 37.2958 50.2161 35.7073 45.5341C34.1188 40.8522 33.9543 35.8043 35.2344 31.0288C36.5146 26.2533 39.182 21.9646 42.8994 18.7049C46.6168 15.4453 51.2172 13.3611 56.119 12.7158C61.0209 12.0705 66.004 12.8932 70.4383 15.0798C74.8726 17.2664 78.559 20.7187 81.0314 25.0002C84.3412 30.745 85.236 37.5685 83.5193 43.9725C81.8025 50.3764 77.6147 55.8374 71.8752 59.1564Z" fill="#FFCD00"/>
<path d="M75.6122 28.1244C73.7046 24.8105 70.8283 22.16 67.3699 20.5291C63.9114 18.8982 60.0366 18.3651 56.2662 19.0014C52.4958 19.6377 49.0105 21.4129 46.2789 24.0885C43.5472 26.7641 41.7 30.2118 40.9857 33.9682L50.8435 43.1869L40.9857 33.9682C40.4152 36.9388 40.5724 40.0035 41.4437 42.9002C42.3151 45.7969 43.8748 48.4396 45.9895 50.6025C48.1042 52.7655 50.7111 54.3843 53.5875 55.3207C56.4638 56.2572 59.5241 56.4833 62.5069 55.9799C65.4896 55.4766 68.3062 54.2586 70.7159 52.43C73.1257 50.6015 75.0569 48.2168 76.3447 45.4797C77.6324 42.7425 78.2384 39.7343 78.1109 36.712C77.9833 33.6898 77.126 30.7433 75.6122 28.1244ZM55.206 42.9963C55.7439 43.4853 56.0937 44.1472 56.1947 44.8671C56.2956 45.5871 56.1414 46.3197 55.7587 46.9378C55.376 47.5559 54.7891 48.0206 54.0996 48.2512C53.4102 48.4818 52.6618 48.4638 51.9842 48.2003C51.3067 47.9368 50.7427 47.4444 50.3902 46.8086C50.0377 46.1728 49.9189 45.4337 50.0543 44.7194C50.1898 44.0052 50.571 43.3609 51.1319 42.8983C51.6927 42.4357 52.3978 42.184 53.1247 42.1869C53.8949 42.1892 54.6366 42.4777 55.206 42.9963L63.7029 32.14L55.206 42.9963ZM65.6247 32.8119C65.0067 32.8119 64.4025 32.6286 63.8886 32.2853C63.3747 31.9419 62.9741 31.4538 62.7376 30.8828C62.5011 30.3118 62.4392 29.6835 62.5598 29.0773C62.6804 28.4711 62.978 27.9143 63.415 27.4772C63.8521 27.0402 64.4089 26.7425 65.0151 26.622C65.6213 26.5014 66.2496 26.5633 66.8206 26.7998C67.3916 27.0363 67.8797 27.4369 68.2231 27.9508C68.5665 28.4647 68.7497 29.0689 68.7497 29.6869C68.7497 30.5157 68.4205 31.3106 67.8344 31.8966C67.2484 32.4827 66.4535 32.8119 65.6247 32.8119Z" fill="#57A4FF"/>
<path d="M82.7562 65.499L80.0499 67.0615L74.6374 70.1865L71.9312 71.749L73.4374 74.3568L82.7343 90.46C83.5631 91.8954 84.9282 92.9428 86.5293 93.3718C88.1304 93.8008 89.8363 93.5762 91.2718 92.7475C92.7072 91.9186 93.7547 90.5535 94.1836 88.9525C94.6126 87.3514 94.388 85.6455 93.5593 84.21L82.7562 65.499Z" fill="#1A6FB0"/>
<path d="M17.1875 48.4375C18.9134 48.4375 20.3125 47.0384 20.3125 45.3125C20.3125 43.5866 18.9134 42.1875 17.1875 42.1875C15.4616 42.1875 14.0625 43.5866 14.0625 45.3125C14.0625 47.0384 15.4616 48.4375 17.1875 48.4375Z" fill="#D80027"/>
<path d="M29.6875 26.5625C31.4134 26.5625 32.8125 25.1634 32.8125 23.4375C32.8125 21.7116 31.4134 20.3125 29.6875 20.3125C27.9616 20.3125 26.5625 21.7116 26.5625 23.4375C26.5625 25.1634 27.9616 26.5625 29.6875 26.5625Z" fill="#D80027"/>
<path d="M29.6875 73.4375H35.9375V89.0625H29.6875V73.4375Z" fill="#FF9811"/>
<path d="M54.6875 73.4375H60.9375V89.0625H54.6875V73.4375Z" fill="#006DF0"/>
<path d="M42.1875 67.1875H48.4375V89.0625H42.1875V67.1875Z" fill="#5EAC24"/>
<path d="M17.1875 79.6875H23.4375V89.0625H17.1875V79.6875Z" fill="#D80027"/>
<path d="M75.6126 28.1252C73.7584 24.9135 70.9935 22.3239 67.6675 20.6837C64.3415 19.0435 60.6038 18.4264 56.9271 18.9104C53.2504 19.3945 49.7998 20.9579 47.0117 23.4031C44.2235 25.8483 42.2231 29.0653 41.2633 32.6474C40.3036 36.2295 40.4276 40.0157 41.6197 43.5273C42.8118 47.0389 45.0184 50.1182 47.9606 52.3757C50.9027 54.6331 54.4482 55.9675 58.1488 56.2099C61.8493 56.4523 65.5385 55.592 68.7501 53.7377C73.0523 51.2473 76.191 47.1521 77.4776 42.3505C78.7641 37.5488 78.0934 32.4329 75.6126 28.1252Z" fill="#FFBCAB"/>
<path d="M74.3265 57.5195C72.7611 58.7111 71.0505 59.6987 69.2358 60.4586L69.0796 60.5508L74.6421 70.1867L80.0546 67.0617L74.4921 57.4258L74.3265 57.5195Z" fill="#FF5023"/>
<path d="M50 45.3126C49.9975 45.8347 50.1257 46.349 50.373 46.8088C50.6204 47.2685 50.979 47.6589 51.416 47.9444C51.8531 48.2299 52.3547 48.4013 52.8751 48.4431C53.3955 48.4848 53.918 48.3955 54.395 48.1834C54.872 47.9712 55.2882 47.643 55.6057 47.2286C55.9232 46.8142 56.1318 46.3268 56.2125 45.8111C56.2931 45.2953 56.2433 44.7675 56.0676 44.276C55.8918 43.7844 55.5957 43.3447 55.2063 42.997C54.7593 42.5907 54.2038 42.3231 53.6074 42.2271C53.011 42.1311 52.3996 42.2106 51.8476 42.4561C51.2957 42.7016 50.8271 43.1024 50.499 43.6096C50.171 44.1168 49.9976 44.7086 50 45.3126Z" fill="#D80027"/>
<path d="M65.625 32.8125C67.3509 32.8125 68.75 31.4134 68.75 29.6875C68.75 27.9616 67.3509 26.5625 65.625 26.5625C63.8991 26.5625 62.5 27.9616 62.5 29.6875C62.5 31.4134 63.8991 32.8125 65.625 32.8125Z" fill="#D80027"/>
<path d="M49.2187 19.9091C45.7397 21.918 42.9345 24.9135 41.1578 28.5166C39.3812 32.1198 38.7128 36.1689 39.2374 40.1519C39.7619 44.1349 41.4558 47.8729 44.1047 50.8932C46.7537 53.9135 50.2387 56.0805 54.1193 57.1202C57.9998 58.1599 62.1014 58.0255 65.9056 56.7341C69.7098 55.4427 73.0455 53.0522 75.4911 49.865C77.9367 46.6778 79.3823 42.8369 79.645 38.8281C79.9077 34.8194 78.9758 30.8227 76.9672 27.3435C74.2688 22.6829 69.832 19.2829 64.6301 17.8892C59.4281 16.4955 53.8858 17.2219 49.2187 19.9091ZM74.2594 28.906C75.5906 31.1977 76.3739 33.7661 76.548 36.4107C76.7221 39.0552 76.2823 41.7042 75.2629 44.1506C74.2435 46.597 72.6722 48.7745 70.6717 50.5129C68.6713 52.2514 66.2959 53.5036 63.7313 54.1719C61.1666 54.8401 58.4822 54.9062 55.8878 54.365C53.2933 53.8237 50.8592 52.6899 48.7756 51.052C46.6921 49.4141 45.0155 47.3166 43.877 44.9233C42.7384 42.5301 42.1688 39.9059 42.2125 37.256L48.8312 43.4435C48.5068 44.1761 48.3755 44.9797 48.4499 45.7775C48.5244 46.5753 48.8021 47.3407 49.2566 48.0006C49.7111 48.6605 50.3271 49.1928 51.0459 49.5469C51.7647 49.9009 52.5623 50.0648 53.3624 50.0229C54.1626 49.981 54.9386 49.7346 55.6165 49.3074C56.2944 48.8802 56.8514 48.2863 57.2344 47.5826C57.6174 46.8788 57.8137 46.0886 57.8043 45.2874C57.795 44.4862 57.5805 43.7007 57.1812 43.006L64.1422 34.1123C64.6188 34.2801 65.1197 34.3688 65.625 34.3748C66.5521 34.3748 67.4584 34.0999 68.2292 33.5848C69.0001 33.0697 69.6009 32.3376 69.9557 31.4811C70.3105 30.6246 70.4033 29.6821 70.2224 28.7728C70.0415 27.8635 69.5951 27.0283 68.9395 26.3727C68.284 25.7172 67.4488 25.2707 66.5395 25.0898C65.6302 24.909 64.6877 25.0018 63.8312 25.3566C62.9746 25.7114 62.2425 26.3122 61.7275 27.083C61.2124 27.8539 60.9375 28.7602 60.9375 29.6873C60.9403 30.5743 61.1973 31.4419 61.6781 32.1873L54.8203 40.9482C54.2031 40.6982 53.5381 40.5881 52.8733 40.6256C52.2084 40.6632 51.5601 40.8475 50.975 41.1654L42.6937 33.4263C43.5028 30.0914 45.2926 27.0754 47.8321 24.7674C50.3716 22.4593 53.5444 20.9651 56.9412 20.4774C60.3381 19.9898 63.8031 20.531 66.8894 22.0314C69.9757 23.5318 72.5416 25.9225 74.2562 28.8951L74.2594 28.906ZM54.6875 45.3123C54.6875 45.6213 54.5958 45.9234 54.4242 46.1804C54.2525 46.4373 54.0084 46.6376 53.7229 46.7558C53.4374 46.8741 53.1232 46.905 52.8202 46.8448C52.5171 46.7845 52.2386 46.6357 52.0201 46.4171C51.8016 46.1986 51.6528 45.9202 51.5925 45.6171C51.5322 45.314 51.5632 44.9998 51.6814 44.7143C51.7997 44.4288 52 44.1848 52.2569 44.0131C52.5139 43.8414 52.816 43.7498 53.125 43.7498C53.5394 43.7498 53.9368 43.9144 54.2298 44.2074C54.5229 44.5004 54.6875 44.8979 54.6875 45.3123ZM64.0625 29.6873C64.0625 29.3782 64.1541 29.0761 64.3258 28.8192C64.4975 28.5622 64.7415 28.362 65.027 28.2437C65.3126 28.1255 65.6267 28.0945 65.9298 28.1548C66.2329 28.2151 66.5113 28.3639 66.7298 28.5824C66.9484 28.8009 67.0972 29.0793 67.1575 29.3824C67.2178 29.6855 67.1868 29.9997 67.0685 30.2852C66.9503 30.5707 66.75 30.8148 66.4931 30.9864C66.2361 31.1581 65.934 31.2498 65.625 31.2498C65.2106 31.2498 64.8132 31.0852 64.5201 30.7921C64.2271 30.4991 64.0625 30.1017 64.0625 29.6873Z" fill="black"/>
<path d="M94.9125 83.4375L84.1094 64.7156C83.9022 64.3568 83.5609 64.0949 83.1606 63.9877C82.7604 63.8804 82.3339 63.9366 81.975 64.1437L80.6219 64.925L76.4953 57.7797C79.5761 55.1876 82.0262 51.928 83.6597 48.2481C85.2932 44.5682 86.0673 40.5646 85.9232 36.541C85.779 32.5174 84.7206 28.5795 82.8279 25.0258C80.9353 21.4722 78.2584 18.3963 75 16.0312V4.6875C75 4.2731 74.8354 3.87567 74.5424 3.58265C74.2493 3.28962 73.8519 3.125 73.4375 3.125H20.3125C19.8981 3.12509 19.5008 3.28977 19.2078 3.58281L3.58281 19.2078C3.28977 19.5008 3.12509 19.8981 3.125 20.3125V95.3125C3.125 95.7269 3.28962 96.1243 3.58265 96.4174C3.87567 96.7104 4.2731 96.875 4.6875 96.875H73.4375C73.8519 96.875 74.2493 96.7104 74.5424 96.4174C74.8354 96.1243 75 95.7269 75 95.3125V80.1891L81.3812 91.25C81.8905 92.1457 82.5719 92.9318 83.3861 93.563C84.2004 94.1943 85.1315 94.6583 86.1258 94.9282C87.1202 95.1982 88.1581 95.2688 89.1798 95.136C90.2015 95.0032 91.1869 94.6696 92.0791 94.1544C92.9714 93.6392 93.753 92.9527 94.3788 92.1342C95.0046 91.3158 95.4624 90.3816 95.7258 89.3855C95.9891 88.3894 96.0528 87.3511 95.9133 86.3303C95.7737 85.3095 95.4336 84.3263 94.9125 83.4375ZM77.9156 66.4875L75.2094 68.05L71.2781 61.2406C71.7469 61.0078 72.2031 60.7719 72.6562 60.5047C73.1094 60.2375 73.5344 59.9406 73.9703 59.6547L77.9156 66.4875ZM79.6719 25.7812C82.3992 30.4909 83.4083 36.0009 82.527 41.3715C81.6457 46.7421 78.9287 51.6406 74.8392 55.2317C70.7497 58.8228 65.5411 60.884 60.1016 61.0638C54.6622 61.2436 49.3288 59.5308 45.0111 56.2177C40.6934 52.9045 37.6588 48.1961 36.4247 42.8954C35.1907 37.5947 35.8337 32.0301 38.2441 27.1506C40.6545 22.2711 44.683 18.3789 49.6426 16.1377C54.6021 13.8966 60.1855 13.4453 65.4406 14.8609C71.4435 16.4725 76.5617 20.4 79.6719 25.7812ZM18.75 8.45937V18.75H8.45937L18.75 8.45937ZM71.875 93.75H6.25V21.875H20.3125C20.7269 21.875 21.1243 21.7104 21.4174 21.4174C21.7104 21.1243 21.875 20.7269 21.875 20.3125V6.25H71.875V14.0828C70.0911 13.1249 68.204 12.3732 66.25 11.8422C60.1856 10.209 53.7381 10.7842 48.0586 13.4651C42.3791 16.146 37.8372 20.7581 35.2438 26.4781L33.9828 25.3031C34.3215 24.5352 34.4479 23.6905 34.3487 22.8571C34.2495 22.0237 33.9283 21.2322 33.4187 20.5653C32.9092 19.8984 32.2299 19.3806 31.4519 19.0658C30.6739 18.7511 29.8256 18.651 28.9957 18.7761C28.1658 18.9011 27.3846 19.2467 26.7339 19.7767C26.0831 20.3067 25.5866 21.0017 25.2962 21.7891C25.0057 22.5766 24.932 23.4275 25.0828 24.2532C25.2335 25.0788 25.6032 25.8488 26.1531 26.4828L18.0125 40.7016C17.7402 40.6522 17.4642 40.6266 17.1875 40.625C16.2604 40.625 15.3541 40.8999 14.5833 41.415C13.8124 41.9301 13.2116 42.6621 12.8568 43.5187C12.502 44.3752 12.4092 45.3177 12.5901 46.227C12.7709 47.1363 13.2174 47.9715 13.8729 48.6271C14.5285 49.2826 15.3637 49.7291 16.273 49.9099C17.1823 50.0908 18.1248 49.998 18.9813 49.6432C19.8379 49.2884 20.5699 48.6876 21.085 47.9167C21.6001 47.1459 21.875 46.2396 21.875 45.3125C21.8707 44.1915 21.4611 43.1099 20.7219 42.2672L28.8625 28.0484C29.1348 28.0978 29.4108 28.1234 29.6875 28.125C30.4384 28.1198 31.1768 27.9322 31.8391 27.5781L34.0484 29.6344C32.979 33.0459 32.6111 36.6386 32.9669 40.1961C33.3228 43.7536 34.3949 47.2023 36.1189 50.3344C37.8428 53.4666 40.1829 56.2174 42.9982 58.4212C45.8134 60.625 49.0456 62.2362 52.5 63.1578C54.7558 63.7639 57.0814 64.0717 59.4172 64.0734C62.4766 64.0699 65.5119 63.5316 68.3859 62.4828L72.5 69.6141L71.1484 70.3953C70.7896 70.6025 70.5277 70.9438 70.4205 71.3441C70.3132 71.7443 70.3694 72.1708 70.5766 72.5297L71.875 74.775V93.75ZM28.125 23.4375C28.125 23.1285 28.2166 22.8264 28.3883 22.5694C28.56 22.3125 28.804 22.1122 29.0896 21.9939C29.3751 21.8757 29.6892 21.8447 29.9923 21.905C30.2954 21.9653 30.5738 22.1141 30.7924 22.3326C31.0109 22.5512 31.1597 22.8296 31.22 23.1327C31.2803 23.4358 31.2493 23.7499 31.1311 24.0354C31.0128 24.321 30.8125 24.565 30.5556 24.7367C30.2986 24.9084 29.9965 25 29.6875 25C29.2731 25 28.8757 24.8354 28.5826 24.5424C28.2896 24.2493 28.125 23.8519 28.125 23.4375ZM18.75 45.3125C18.75 45.6215 18.6584 45.9236 18.4867 46.1806C18.315 46.4375 18.071 46.6378 17.7854 46.7561C17.4999 46.8743 17.1858 46.9053 16.8827 46.845C16.5796 46.7847 16.3012 46.6359 16.0826 46.4174C15.8641 46.1988 15.7153 45.9204 15.655 45.6173C15.5947 45.3142 15.6257 45.0001 15.7439 44.7146C15.8622 44.4291 16.0625 44.185 16.3194 44.0133C16.5764 43.8416 16.8785 43.75 17.1875 43.75C17.6019 43.75 17.9993 43.9146 18.2924 44.2076C18.5854 44.5007 18.75 44.8981 18.75 45.3125ZM92.675 88.5484C92.4363 89.4458 91.9364 90.252 91.2389 90.8649C90.5413 91.4777 89.6774 91.8696 88.7568 91.9908C87.8362 92.112 86.9003 91.957 86.0679 91.5456C85.2355 91.1341 84.5441 90.4847 84.0813 89.6797L74.0625 72.3203L82.1875 67.6328L92.2063 85C92.5143 85.5314 92.7142 86.1185 92.7947 86.7274C92.8751 87.3364 92.8345 87.9553 92.675 88.5484Z" fill="black"/>
<path d="M64.0625 87.5H62.5V73.4375C62.5 73.0231 62.3354 72.6257 62.0424 72.3326C61.7493 72.0396 61.3519 71.875 60.9375 71.875H54.6875C54.2731 71.875 53.8757 72.0396 53.5826 72.3326C53.2896 72.6257 53.125 73.0231 53.125 73.4375V87.5H50V67.1875C50 66.7731 49.8354 66.3757 49.5424 66.0826C49.2493 65.7896 48.8519 65.625 48.4375 65.625H42.1875C41.7731 65.625 41.3757 65.7896 41.0826 66.0826C40.7896 66.3757 40.625 66.7731 40.625 67.1875V87.5H37.5V73.4375C37.5 73.0231 37.3354 72.6257 37.0424 72.3326C36.7493 72.0396 36.3519 71.875 35.9375 71.875H29.6875C29.2731 71.875 28.8757 72.0396 28.5826 72.3326C28.2896 72.6257 28.125 73.0231 28.125 73.4375V87.5H25V79.6875C25 79.2731 24.8354 78.8757 24.5424 78.5826C24.2493 78.2896 23.8519 78.125 23.4375 78.125H17.1875C16.7731 78.125 16.3757 78.2896 16.0826 78.5826C15.7896 78.8757 15.625 79.2731 15.625 79.6875V87.5H14.0625C13.6481 87.5 13.2507 87.6646 12.9576 87.9576C12.6646 88.2507 12.5 88.6481 12.5 89.0625C12.5 89.4769 12.6646 89.8743 12.9576 90.1674C13.2507 90.4604 13.6481 90.625 14.0625 90.625H64.0625C64.4769 90.625 64.8743 90.4604 65.1674 90.1674C65.4604 89.8743 65.625 89.4769 65.625 89.0625C65.625 88.6481 65.4604 88.2507 65.1674 87.9576C64.8743 87.6646 64.4769 87.5 64.0625 87.5ZM18.75 87.5V81.25H21.875V87.5H18.75ZM31.25 87.5V75H34.375V87.5H31.25ZM43.75 87.5V68.75H46.875V87.5H43.75ZM56.25 87.5V75H59.375V87.5H56.25Z" fill="black"/>
<path d="M12.5 59.375H31.25C31.6644 59.375 32.0618 59.2104 32.3549 58.9174C32.6479 58.6243 32.8125 58.2269 32.8125 57.8125C32.8125 57.3981 32.6479 57.0007 32.3549 56.7076C32.0618 56.4146 31.6644 56.25 31.25 56.25H12.5C12.0856 56.25 11.6882 56.4146 11.3951 56.7076C11.1021 57.0007 10.9375 57.3981 10.9375 57.8125C10.9375 58.2269 11.1021 58.6243 11.3951 58.9174C11.6882 59.2104 12.0856 59.375 12.5 59.375Z" fill="black"/>
<path d="M31.25 65.625C31.6644 65.625 32.0618 65.4604 32.3549 65.1674C32.6479 64.8743 32.8125 64.4769 32.8125 64.0625C32.8125 63.6481 32.6479 63.2507 32.3549 62.9576C32.0618 62.6646 31.6644 62.5 31.25 62.5H12.5C12.0856 62.5 11.6882 62.6646 11.3951 62.9576C11.1021 63.2507 10.9375 63.6481 10.9375 64.0625C10.9375 64.4769 11.1021 64.8743 11.3951 65.1674C11.6882 65.4604 12.0856 65.625 12.5 65.625H31.25Z" fill="black"/>
</svg>
