<svg width="1600" height="356" viewBox="0 0 1600 356" fill="none" xmlns="http://www.w3.org/2000/svg">
<g clip-path="url(#clip0)">
<path d="M0 177.778L38.1111 189.666C76.2222 201.111 152.222 225.555 228.889 201.444C304.778 177.778 381.111 106.667 456.667 106.667C533.333 106.667 610 177.778 685.556 207.444C761.889 236.666 837.778 225.555 914.444 207.444C990.445 190 1066.67 165.555 1143.33 171.889C1219 177.778 1295.56 213.333 1371.11 231.111C1447.67 248.889 1523.33 248.889 1562.22 248.889H1600V355.555H1561.89C1523.78 355.555 1447.78 355.555 1371.11 355.555C1295.22 355.555 1218.89 355.555 1143.33 355.555C1066.67 355.555 990 355.555 914.444 355.555C838.111 355.555 762.222 355.555 685.556 355.555C609.556 355.555 533.333 355.555 456.667 355.555C381 355.555 304.444 355.555 228.889 355.555C152.333 355.555 76.6667 355.555 37.7778 355.555H0L0 177.778Z" fill="white"/>
</g>
<defs>
<clipPath id="clip0">
</clipPath>
</defs>
</svg>
