<svg width="1600" height="356" viewBox="0 0 1600 356" fill="none" xmlns="http://www.w3.org/2000/svg">
<g clip-path="url(#clip0)">
<path d="M1600 177.778L1561.89 165.889C1523.78 154.444 1447.78 130 1371.11 154.111C1295.22 177.778 1218.89 248.889 1143.33 248.889C1066.67 248.889 990 177.778 914.444 148.111C838.111 118.889 762.222 130 685.556 148.111C609.555 165.555 533.333 190 456.667 183.666C381 177.777 304.444 142.222 228.889 124.444C152.333 106.666 76.6666 106.666 37.7777 106.666L-0.000109637 106.666L-0.000100312 -0.000338241L38.1111 -0.000334909C76.2222 -0.000331577 152.222 -0.000324933 228.889 -0.000318231C304.778 -0.000311596 381.111 -0.000304923 456.667 -0.000298318C533.333 -0.000291615 610 -0.000284913 685.556 -0.000278308C761.889 -0.000271634 837.778 -0.000265 914.444 -0.000258297C990.444 -0.000251653 1066.67 -0.00024499 1143.33 -0.000238287C1219 -0.000231672 1295.56 -0.00022498 1371.11 -0.000218374C1447.67 -0.000211682 1523.33 -0.000205067 1562.22 -0.000201667L1600 -0.000198364L1600 177.778Z" fill="white"/>
</g>
<defs>
<clipPath id="clip0">
<rect x="1600" y="355.556" width="1600" height="355.556" transform="rotate(-180 1600 355.556)" fill="white"/>
</clipPath>
</defs>
</svg>
